<svg width="128" height="39" viewBox="0 0 128 39" fill="none" xmlns="http://www.w3.org/2000/svg">
<path d="M0.355 30.42V28.99C0.355 28.3667 0.666667 28.055 1.29 28.055H4.81C5.43333 28.055 5.745 28.3667 5.745 28.99V29.98C5.745 31.52 6.075 32.6383 6.735 33.335C7.43167 33.995 8.56833 34.325 10.145 34.325H13.94C15.5167 34.325 16.6533 33.9767 17.35 33.28C18.0467 32.5467 18.395 31.3733 18.395 29.76V28.495C18.395 27.3217 17.9367 26.405 17.02 25.745C16.14 25.0483 15.04 24.6083 13.72 24.425C12.4 24.205 10.9517 23.9117 9.375 23.545C7.79833 23.1783 6.35 22.7567 5.03 22.28C3.71 21.8033 2.59167 20.905 1.675 19.585C0.795 18.265 0.355 16.5783 0.355 14.525V12.215C0.355 9.53833 1.10667 7.44833 2.61 5.945C4.15 4.405 6.25833 3.635 8.935 3.635H14.765C17.4783 3.635 19.5867 4.405 21.09 5.945C22.63 7.44833 23.4 9.53833 23.4 12.215V13.425C23.4 14.0483 23.0883 14.36 22.465 14.36H18.945C18.3217 14.36 18.01 14.0483 18.01 13.425V12.71C18.01 11.1333 17.6617 10.015 16.965 9.355C16.305 8.65833 15.1867 8.31 13.61 8.31H10.145C8.56833 8.31 7.43167 8.67666 6.735 9.41C6.075 10.1067 5.745 11.3167 5.745 13.04V14.745C5.745 16.395 6.93667 17.5133 9.32 18.1C10.3833 18.3567 11.5383 18.5767 12.785 18.76C14.0683 18.9433 15.3517 19.2183 16.635 19.585C17.9183 19.9517 19.0917 20.4467 20.155 21.07C21.2183 21.6567 22.08 22.5733 22.74 23.82C23.4 25.03 23.73 26.515 23.73 28.275V30.42C23.73 33.0967 22.96 35.205 21.42 36.745C19.9167 38.2483 17.8267 39 15.15 39H8.99C6.31333 39 4.205 38.2483 2.665 36.745C1.125 35.205 0.355 33.0967 0.355 30.42ZM40.7168 39H38.5718C35.8585 39 33.7502 38.2483 32.2468 36.745C30.7802 35.2417 30.0468 33.1517 30.0468 30.475V19.475C30.0468 16.7617 30.7802 14.6717 32.2468 13.205C33.7502 11.7017 35.8585 10.95 38.5718 10.95H50.8918C51.5518 10.95 51.8818 11.2617 51.8818 11.885V38.065C51.8818 38.6883 51.5518 39 50.8918 39H47.4268C46.8035 39 46.4918 38.6883 46.4918 38.065V36.085H46.2718C45.3918 38.0283 43.5402 39 40.7168 39ZM46.4918 29.65V16.175C46.4918 15.8083 46.2902 15.625 45.8868 15.625H39.3418C36.7018 15.625 35.3818 16.9817 35.3818 19.695V30.255C35.3818 32.9683 36.7018 34.325 39.3418 34.325H41.9818C44.9885 34.325 46.4918 32.7667 46.4918 29.65ZM63.4164 39H59.9514C59.328 39 59.0164 38.6883 59.0164 38.065V1.27C59.0164 0.646665 59.328 0.335 59.9514 0.335H63.4164C64.0397 0.335 64.3514 0.646665 64.3514 1.27V38.065C64.3514 38.6883 64.0397 39 63.4164 39ZM72.4033 15.625H69.7633C69.3966 15.625 69.1399 15.57 68.9933 15.46C68.8833 15.3133 68.8283 15.075 68.8283 14.745V11.885C68.8283 11.2617 69.1399 10.95 69.7633 10.95H72.4033C72.7699 10.95 72.9533 10.7667 72.9533 10.4V5.45C72.9533 4.82667 73.2833 4.515 73.9433 4.515H77.4083C78.0316 4.515 78.3433 4.82667 78.3433 5.45V10.4C78.3433 10.7667 78.5449 10.95 78.9483 10.95H84.0633C84.7233 10.95 85.0533 11.2617 85.0533 11.885V14.745C85.0533 15.3317 84.7233 15.625 84.0633 15.625H78.9483C78.5449 15.625 78.3433 15.8083 78.3433 16.175V30.31C78.3433 32.9867 79.7183 34.325 82.4683 34.325H84.6133C85.2733 34.325 85.6033 34.6367 85.6033 35.26V38.12C85.6033 38.7067 85.2733 39 84.6133 39H81.6433C78.9299 39 76.8033 38.2667 75.2633 36.8C73.7233 35.3333 72.9533 33.2617 72.9533 30.585V16.175C72.9533 15.8083 72.7699 15.625 72.4033 15.625Z" fill="#005C9A"/>
<path d="M109.891 3.635H113.356C114.016 3.635 114.346 3.92833 114.346 4.515V30.475C114.346 33.1517 113.576 35.2417 112.036 36.745C110.532 38.2483 108.442 39 105.766 39H99.6605C96.9838 39 94.8938 38.2483 93.3905 36.745C91.8872 35.2417 91.1355 33.1517 91.1355 30.475V4.57C91.1355 3.94667 91.4472 3.635 92.0705 3.635H95.5355C96.1588 3.635 96.4705 3.94667 96.4705 4.57V30.255C96.4705 32.9683 97.7905 34.325 100.431 34.325H104.941C107.617 34.325 108.956 32.9683 108.956 30.255V4.57C108.956 3.94667 109.267 3.635 109.891 3.635ZM127.636 4.57V38.065C127.636 38.6883 127.324 39 126.701 39H123.236C122.612 39 122.301 38.6883 122.301 38.065V4.57C122.301 3.94667 122.612 3.635 123.236 3.635H126.701C127.324 3.635 127.636 3.94667 127.636 4.57Z" fill="#AD1055"/>
</svg>
